<svg xmlns="http://www.w3.org/2000/svg"  viewBox="0 0 64 64" width="48px" height="48px"><path d="M 13.978516 11.755859 C 13.247312 11.818906 12.582469 12.285406 12.292969 13.003906 C 10.154969 18.320906 10.747484 23.309188 11.146484 25.367188 C 9.1924844 28.274187 8.1269531 31.749 8.1269531 35.25 C 8.1269531 39.993 9.9834688 44.451687 13.355469 47.804688 C 16.529469 50.960688 21.872703 53 26.970703 53 L 37.279297 53 C 42.377297 53 47.721484 50.961641 50.896484 47.806641 C 54.268484 44.453641 56.126953 39.994953 56.126953 35.251953 C 56.126953 31.464953 54.897438 27.762656 52.648438 24.722656 C 52.952438 22.764656 53.292359 18.236516 51.193359 13.228516 C 50.796359 12.281516 49.747672 11.784891 48.763672 12.087891 C 43.609672 13.664891 40.359406 16.247219 38.941406 17.574219 C 38.816406 17.555219 38.691406 17.537531 38.566406 17.519531 C 34.847406 16.991531 29.678125 16.990578 25.703125 17.517578 C 25.408125 17.557578 25.113312 17.597578 24.820312 17.642578 C 23.487312 16.144578 20.494703 13.554031 14.720703 11.832031 C 14.473453 11.758281 14.22225 11.734844 13.978516 11.755859 z M 15.402344 16.28125 C 20.542344 18.22925 22.255672 20.834797 22.263672 20.841797 C 22.693672 21.558797 23.524703 21.930297 24.345703 21.779297 C 24.969703 21.663297 25.598469 21.566422 26.230469 21.482422 C 29.822469 21.007422 34.664859 21.006469 38.005859 21.480469 C 38.438859 21.542469 38.870781 21.609594 39.300781 21.683594 C 39.988781 21.805594 40.695297 21.546531 41.154297 21.019531 C 41.180297 20.989531 43.500719 18.374969 48.136719 16.542969 C 49.467719 21.034969 48.586125 24.706234 48.578125 24.740234 C 48.417125 25.361234 48.565609 26.019672 48.974609 26.513672 C 51.006609 28.968672 52.126953 32.071 52.126953 35.25 C 52.126953 37.983797 51.325653 40.594323 49.839844 42.822266 L 49.839844 37.580078 C 49.839844 35.020078 48.843203 32.616641 47.033203 30.806641 C 45.224203 28.997641 42.818766 28 40.259766 28 L 24.242188 28 C 21.683187 28 19.27675 28.996641 17.46875 30.806641 C 15.65875 32.615641 14.662109 35.021078 14.662109 37.580078 L 14.662109 43.169922 C 13.020065 40.867398 12.123047 38.130613 12.123047 35.251953 C 12.123047 32.297953 13.107625 29.367906 14.890625 27.003906 C 15.265625 26.505906 15.38575 25.855859 15.21875 25.255859 C 15.20675 25.208859 14.085344 21.06825 15.402344 16.28125 z M 24.242188 32 L 40.259766 32 C 41.749766 32 43.150078 32.580766 44.205078 33.634766 C 45.259078 34.687766 45.839844 36.089078 45.839844 37.580078 L 45.839844 46.652344 C 43.409587 48.087104 40.218332 49 37.279297 49 L 26.970703 49 C 24.118607 49 21.036603 48.135229 18.634766 46.773438 C 18.647271 46.683092 18.662109 46.593768 18.662109 46.5 L 18.662109 37.580078 C 18.662109 36.090078 19.242875 34.688766 20.296875 33.634766 C 21.335875 32.596766 22.772188 32 24.242188 32 z M 24.232422 36 C 22.835422 36 21.701172 37.792 21.701172 40 C 21.701172 42.208 22.835422 44 24.232422 44 C 25.629422 44 26.763672 42.208 26.763672 40 C 26.763672 37.792 25.629422 36 24.232422 36 z M 40.320312 36 C 38.923313 36 37.789062 37.792 37.789062 40 C 37.789062 42.208 38.923313 44 40.320312 44 C 41.717312 44 42.851562 42.208 42.851562 40 C 42.851563 37.792 41.717312 36 40.320312 36 z"/></svg>